<svg width="195" height="1014" viewBox="0 0 195 1014" fill="none" xmlns="http://www.w3.org/2000/svg">
<path d="M96.5 4C96.5 4 264.125 80.7492 96.5 157C-71.1249 233.251 96.5 310 96.5 310" stroke="#A0BAD8" stroke-width="8"/>
<path d="M96.5 310C96.5 310 264.125 386.749 96.5 463C-71.1249 539.251 96.5 616 96.5 616" stroke="#A0BAD8" stroke-width="8"/>
<path d="M96.5 616C96.5 616 264.125 692.749 96.5 769C-71.1249 845.251 96.5 922 96.5 922" stroke="#A0BAD8" stroke-width="8"/>
<path d="M96.5 922C96.5 922 159.25 950.731 169.571 990.5" stroke="#A0BAD8" stroke-width="8"/>
<rect x="146.5" y="61.5" width="46" height="46" rx="23" fill="#16365C"/>
<rect x="146.5" y="61.5" width="46" height="46" rx="23" stroke="#A0BAD8" stroke-width="5"/>
<path d="M169.071 95.5V76.94L164.207 77.996L163.503 75.404L169.423 73.1H172.463V95.5H169.071Z" fill="white"/>
<rect x="143.5" y="665.5" width="46" height="46" rx="23" fill="#16365C"/>
<rect x="143.5" y="665.5" width="46" height="46" rx="23" stroke="#A0BAD8" stroke-width="5"/>
<path d="M165.689 699.788C164.665 699.788 163.63 699.671 162.585 699.436C161.561 699.201 160.537 698.839 159.513 698.348L158.265 697.772L159.225 695.244L160.697 695.756C161.38 695.991 162.094 696.193 162.841 696.364C163.609 696.513 164.366 696.588 165.113 696.588C166.798 696.588 168.1 696.204 169.017 695.436C169.934 694.668 170.393 693.591 170.393 692.204C170.393 691.009 169.934 690.071 169.017 689.388C168.121 688.705 166.905 688.364 165.369 688.364C164.878 688.364 164.334 688.407 163.737 688.492C163.14 688.556 162.553 688.652 161.977 688.78L159.897 688.3L160.857 677.068H173.049L172.633 680.3H163.577L163.097 685.868C163.758 685.697 164.398 685.58 165.017 685.516C165.636 685.431 166.222 685.388 166.777 685.388C168.206 685.388 169.444 685.665 170.489 686.22C171.534 686.753 172.345 687.521 172.921 688.524C173.497 689.527 173.785 690.721 173.785 692.108C173.785 693.708 173.454 695.084 172.793 696.236C172.153 697.367 171.225 698.241 170.009 698.86C168.814 699.479 167.374 699.788 165.689 699.788Z" fill="white"/>
<rect x="143.5" y="365.5" width="46" height="46" rx="23" fill="#16365C"/>
<rect x="143.5" y="365.5" width="46" height="46" rx="23" stroke="#A0BAD8" stroke-width="5"/>
<path d="M165.667 399.788C164.622 399.788 163.598 399.66 162.595 399.404C161.593 399.148 160.622 398.807 159.683 398.38L158.339 397.772L159.299 395.34L160.579 395.788C161.454 396.108 162.265 396.332 163.011 396.46C163.758 396.588 164.505 396.652 165.251 396.652C166.83 396.652 168.014 396.353 168.803 395.756C169.614 395.137 170.019 394.231 170.019 393.036C170.019 391.927 169.657 391.073 168.931 390.476C168.227 389.857 167.214 389.548 165.891 389.548H161.827V386.508H165.699C166.873 386.508 167.801 386.199 168.483 385.58C169.187 384.961 169.539 384.161 169.539 383.18C169.539 382.113 169.209 381.303 168.547 380.748C167.886 380.193 166.915 379.916 165.635 379.916C164.889 379.916 164.142 379.98 163.395 380.108C162.67 380.215 161.913 380.396 161.123 380.652L159.907 381.1L159.107 378.796L160.451 378.156C161.39 377.708 162.361 377.367 163.363 377.132C164.366 376.897 165.358 376.78 166.339 376.78C167.769 376.78 168.974 377.025 169.955 377.516C170.937 377.985 171.683 378.647 172.195 379.5C172.729 380.353 172.995 381.367 172.995 382.54C172.995 383.649 172.697 384.652 172.099 385.548C171.523 386.444 170.713 387.105 169.667 387.532V387.628C170.905 388.055 171.865 388.769 172.547 389.772C173.251 390.775 173.603 391.948 173.603 393.292C173.603 394.593 173.273 395.735 172.611 396.716C171.971 397.697 171.054 398.455 169.859 398.988C168.665 399.521 167.267 399.788 165.667 399.788Z" fill="white"/>
<rect x="143.5" y="965.5" width="46" height="46" rx="23" fill="#16365C"/>
<rect x="143.5" y="965.5" width="46" height="46" rx="23" stroke="#A0BAD8" stroke-width="5"/>
<path d="M161.813 999.5L169.909 980.3H158.485V977.1H173.493V979.628L165.653 999.5H161.813Z" fill="white"/>
<rect x="2.5" y="215.5" width="46" height="46" rx="23" fill="#16365C"/>
<rect x="2.5" y="215.5" width="46" height="46" rx="23" stroke="#A0BAD8" stroke-width="5"/>
<path d="M17.9296 249.5V246.652C17.9296 245.457 18.079 244.444 18.3776 243.612C18.6763 242.759 19.167 242.001 19.8496 241.34C20.5323 240.657 21.4176 239.985 22.5056 239.324L25.5776 237.436C26.8363 236.668 27.743 235.953 28.2976 235.292C28.8736 234.631 29.1616 233.863 29.1616 232.988C29.1616 232.049 28.8416 231.303 28.2016 230.748C27.5616 230.193 26.623 229.916 25.3856 229.916C24.4896 229.916 23.6363 230.001 22.8256 230.172C22.0363 230.343 21.1616 230.588 20.2016 230.908L18.7936 231.388L17.8976 229.052L19.2416 228.412C20.415 227.857 21.567 227.452 22.6976 227.196C23.8283 226.919 24.927 226.78 25.9936 226.78C27.3803 226.78 28.5643 227.015 29.5456 227.484C30.5483 227.953 31.3163 228.636 31.8496 229.532C32.4043 230.428 32.6816 231.527 32.6816 232.828C32.6816 233.831 32.479 234.748 32.0736 235.58C31.6896 236.412 31.1243 237.18 30.3776 237.884C29.631 238.588 28.7243 239.26 27.6576 239.9L24.2976 241.916C23.3163 242.492 22.5696 243.089 22.0576 243.708C21.567 244.327 21.3216 245.191 21.3216 246.3V247.132L20.9056 246.3H33.0336V249.5H17.9296Z" fill="white"/>
<rect x="2.5" y="815.5" width="46" height="46" rx="23" fill="#16365C"/>
<rect x="2.5" y="815.5" width="46" height="46" rx="23" stroke="#A0BAD8" stroke-width="5"/>
<path d="M26.2974 849.82C24.484 849.82 22.9374 849.415 21.6574 848.604C20.3774 847.793 19.396 846.567 18.7134 844.924C18.0307 843.281 17.6894 841.223 17.6894 838.748C17.6894 836.209 18.0734 834.055 18.8414 832.284C19.6307 830.492 20.708 829.127 22.0734 828.188C23.46 827.249 25.0494 826.78 26.8414 826.78C27.6947 826.78 28.5267 826.855 29.3374 827.004C30.1694 827.153 31.044 827.399 31.9614 827.74L32.7614 828.06L31.9294 830.684L31.0654 830.428C30.4467 830.236 29.8494 830.097 29.2734 830.012C28.7187 829.927 28.1107 829.884 27.4494 829.884C25.508 829.884 23.972 830.652 22.8414 832.188C21.732 833.724 21.156 836.007 21.1134 839.036C21.1134 840.849 21.3054 842.332 21.6894 843.484C22.0734 844.615 22.6387 845.457 23.3854 846.012C24.132 846.545 25.0707 846.823 26.2014 846.844C27.5027 846.844 28.5374 846.503 29.3054 845.82C30.0734 845.116 30.4574 844.017 30.4574 842.524C30.4574 841.649 30.276 840.913 29.9134 840.316C29.5507 839.697 29.0387 839.239 28.3774 838.94C27.7374 838.641 26.98 838.492 26.1054 838.492C25.4867 838.492 24.868 838.577 24.2494 838.748C23.652 838.897 22.9907 839.121 22.2654 839.42L20.6014 840.092L20.4094 837.692L22.2334 836.796C23.044 836.391 23.876 836.092 24.7294 835.9C25.5827 835.687 26.4254 835.58 27.2574 835.58C28.5587 835.58 29.7107 835.868 30.7134 836.444C31.716 836.999 32.5054 837.788 33.0814 838.812C33.6574 839.836 33.9454 841.031 33.9454 842.396C33.9454 843.996 33.6147 845.351 32.9534 846.46C32.292 847.548 31.3854 848.38 30.2334 848.956C29.1027 849.532 27.7907 849.82 26.2974 849.82Z" fill="white"/>
<rect x="2.5" y="515.5" width="46" height="46" rx="23" fill="#16365C"/>
<rect x="2.5" y="515.5" width="46" height="46" rx="23" stroke="#A0BAD8" stroke-width="5"/>
<path d="M34.5675 544.22H31.3035V549.5H27.8795V544.22H18.7915L16.5835 542.204L22.6315 527.1H26.3755L20.5515 541.084H27.8795V534.812H31.3035V541.084H34.5675V544.22Z" fill="white"/>
</svg>
