<?xml version="1.0" encoding="UTF-8"?>
<svg id="Ebene_2" xmlns="http://www.w3.org/2000/svg" viewBox="0 0 1118.89 245.76">
  <defs>
    <style>
      .cls-1 {
        fill: #0d427c;
      }

      .cls-2 {
        fill: #0d427c;
      }
    </style>
  </defs>
  <g id="Ebene_1-2" data-name="Ebene_1">
    <g>
      <path class="cls-2" d="M245.76,122.88C245.76,55.12,190.64,0,122.88,0S0,55.12,0,122.88s55.12,122.88,122.88,122.88c13.95,0,27.36-2.34,39.87-6.64,1.24-.4,2.46-.82,3.67-1.29v-.03c46.32-17.61,79.34-62.47,79.34-114.91h0ZM10.72,122.88C10.72,61.03,61.03,10.72,122.88,10.72s112.16,50.32,112.16,112.16c0,25.76-8.73,49.51-23.38,68.46-7.56-2.28-20.55-7.79-32.57-14.45-2.9-1.61-5.46-3.12-7.74-4.55v-22.13c19.78-8.21,29.07-17.23,28.28-27.41-1.23-16.02-28.08-25.49-44.79-28.9-3.87-14.76-11.63-14.38-11.63-14.38,0,0,6.25-14.74-4.92-14.74s-5.43,14.34-5.43,14.34c0,0-3.49,1.68-6.89,7.87l-2.51-.23c-10.74-.98-23.72-12.81-23.72-12.81h0c-2.85-3.61-5.21-4.7-5.21-4.7,0,0,6.5-15.7-6.16-15.7s-5.58,16.13-5.58,16.13c0,0-17.51-.87-15.45,45.22.4,9.04.98,17.57,1.66,25.47-11.78,8.18-20.55,18.1-23.4,30.06-3.64,15.29,3.06,31.3,18.89,45.09,4.59,4,9.93,7.74,15.78,11.1C39.49,209.81,10.72,169.65,10.72,122.88ZM109.46,121.09c.07-2.57.11-5.18.11-7.86,0-6.62-.49-12.26-1.28-17.09,2.56,1.08,5.48,1.99,8.69,2.38,1.59.2,3.16.25,4.67.22-1.17,5.04-1.97,11.34-2.06,19.12-3.37,1-6.76,2.08-10.14,3.23h0ZM157.75,105.52c16.93,4.2,30.73,11.94,31.2,18.1.27,3.52-4.52,8.89-17.6,14.9v-16.95c0-4.77-8.87-5.23-13.6-16.05h0ZM156.74,123.21c2.14,2.16,4.52,3.97,7.11,5.17l.54,13.08c-2.75,1.07-5.76,2.16-9.05,3.25.56-6.69,1.04-13.89,1.4-21.5h0ZM158.47,154.96c2.22-.73,4.34-1.48,6.38-2.22l.65,15.68c-9.05-6.51-11.02-10.45-10.94-11.32,0,0,.57-1.03,3.92-2.14h0ZM159.39,228.94c-28.6,9.19-67.32-3.6-87.87-21.5-7.34-6.39-19.12-19.38-15.51-34.52,1.68-7.03,6.49-13.77,14.16-20.08,2.67,25.36,5.96,41.78,6.32,43.36.51,2.27,9.26,2.25,9.41-2.71-1.03-23.2-1.05-40.1.53-51.18.95-.5,1.92-1,2.91-1.49,2.23,6.25,5.57,17.62,3.61,25.26-2.83,11.02,4.24,28.47,4.24,28.47,0,0,1.87,2.74,5.09,1.37,3.22-1.37,1.61-4.37,1.61-4.37,0,0-2.64-2.61-2.06-8.39.47-4.72,5.32-23.63,7.08-50.56,3.46-1.24,7.06-2.44,10.83-3.6,1.01,28.82,6.18,49.43,6.64,54.2.51,5.28-1.82,7.67-1.82,7.67,0,0-1.42,2.74,1.42,3.99,2.84,1.25,4.49-1.25,4.49-1.25,0,0,6.24-15.95,3.74-26.01-2.49-10.07,4.74-27.22,4.74-27.22,2.4,9.59,2.58,26.79,1.49,52.26.13,4.54,7.85,4.56,8.3,2.48.23-1.07,1.89-9.6,3.69-23.38,4.14,3.81,9.15,7.24,13.59,9.99l.5,12.19c.69,2.53,4.29,2.53,4.81,0v-9.06c1.44.81,2.7,1.5,3.68,2.04,9.85,5.38,20.69,10.26,29.09,13.23-12.27,12.9-27.57,22.88-44.74,28.81h.03Z"/>
      <g>
        <g>
          <path class="cls-2" d="M289.43,128.59V62.79h29.7c4.83,0,8.95.88,12.36,2.63,3.42,1.75,6.03,4.28,7.85,7.57s2.73,7.25,2.73,11.89-.94,8.68-2.82,12.13-4.54,6.09-7.99,7.94c-3.45,1.85-7.52,2.77-12.22,2.77h-17.39l.09,20.87h-12.31ZM301.75,96.91h15.6c3.88,0,6.88-.97,8.98-2.91s3.15-4.92,3.15-8.93-1.05-7.08-3.15-8.84c-2.1-1.75-5.09-2.63-8.98-2.63h-15.6v23.31Z"/>
          <path class="cls-2" d="M356.64,128.59v-37.41h-10.34v-8.27l10.34-2.07v-8.08c0-3.76.72-6.78,2.16-9.07s3.41-3.96,5.92-5.03c2.51-1.06,5.39-1.6,8.65-1.6,1.63,0,3.35.16,5.17.47s3.63.72,5.45,1.22l1.03.28-1.6,9.12-1.22-.19c-1-.12-1.94-.25-2.82-.38-.88-.12-1.69-.19-2.44-.19-2.7,0-4.78.5-6.25,1.5s-2.21,2.73-2.21,5.17v6.77h14.48v10.34h-14.48v37.41h-11.84ZM405.05,129.34c-4.89,0-8.4-1.13-10.53-3.38-2.13-2.26-3.2-5.2-3.2-8.84v-57.9l11.84-3.01v58.28c0,1.44.42,2.55,1.27,3.34.85.78,2.27,1.17,4.28,1.17.5,0,1.06,0,1.69-.05.63-.03,1.25-.08,1.88-.14l-.28,9.12c-1.13.44-2.3.78-3.53,1.03-1.22.25-2.37.38-3.43.38h.01Z"/>
          <path class="cls-2" d="M443.97,129.34c-4.64,0-8.9-.94-12.78-2.82-3.89-1.88-7-4.65-9.35-8.32-2.35-3.67-3.52-8.13-3.52-13.39,0-3.76.62-7.16,1.88-10.2,1.25-3.04,3.01-5.64,5.26-7.8,2.26-2.16,4.84-3.82,7.75-4.98s6.03-1.74,9.35-1.74c4.76,0,8.77,1.03,12.03,3.1s5.72,4.92,7.38,8.55c1.66,3.64,2.49,7.77,2.49,12.41v3.76h-33.84c.44,2.57,1.32,4.67,2.63,6.3,1.32,1.63,3.01,2.84,5.08,3.62,2.07.78,4.39,1.17,6.96,1.17,1.63,0,3.32-.14,5.08-.42,1.75-.28,3.51-.67,5.26-1.18l4.23-1.22,3.2,7.8-3.67,1.79c-2.51,1.19-5.08,2.08-7.71,2.68-2.63.59-5.2.89-7.71.89h0ZM431,99.26h22.18c-.5-2.88-1.63-5.12-3.38-6.72s-4.17-2.4-7.24-2.4c-2.01,0-3.78.36-5.31,1.08-1.54.72-2.84,1.77-3.9,3.15-1.07,1.38-1.85,3.01-2.35,4.89Z"/>
          <path class="cls-2" d="M495.67,148.23c-2.32,0-4.89-.22-7.71-.66-2.82-.44-5.51-1.03-8.08-1.79l-3.2-.94,2.07-8.65,3.2.56c1.88.31,3.92.59,6.11.85,2.19.25,4.2.38,6.02.38,4.01,0,7.13-.64,9.35-1.93s3.34-3.65,3.34-7.1v-5.73l-2.73,1.13c-1.75.75-3.6,1.33-5.55,1.74-1.94.41-3.76.61-5.45.61-3.38,0-6.38-.63-8.98-1.88s-4.81-2.96-6.63-5.12c-1.82-2.16-3.18-4.65-4.09-7.47s-1.36-5.76-1.36-8.84c0-4.01.8-7.79,2.4-11.33s3.95-6.42,7.05-8.65c3.1-2.22,6.94-3.34,11.52-3.34,2.19,0,4.39.41,6.58,1.22,2.19.82,4.32,1.94,6.39,3.38l2.82,1.97,1.13-5.83h8.74v47.47c0,4.64-.96,8.43-2.87,11.37-1.91,2.95-4.59,5.11-8.04,6.49s-7.46,2.07-12.03,2.07v.02ZM484.01,103.49c0,2.76.52,5.06,1.55,6.91,1.03,1.85,2.49,3.23,4.37,4.13,1.88.91,4.04,1.36,6.49,1.36,1.19,0,2.41-.12,3.67-.38,1.25-.25,2.47-.56,3.67-.94l3.01-1.03v-18.61l-2.63-1.5c-1.5-.88-2.9-1.5-4.18-1.88-1.29-.38-2.49-.56-3.62-.56-2.63,0-4.87.52-6.72,1.55-1.85,1.03-3.24,2.49-4.18,4.37-.94,1.88-1.41,4.08-1.41,6.58h-.02Z"/>
          <path class="cls-2" d="M555.07,129.34c-4.64,0-8.9-.94-12.78-2.82-3.89-1.88-7-4.65-9.35-8.32-2.35-3.67-3.52-8.13-3.52-13.39,0-3.76.62-7.16,1.88-10.2,1.25-3.04,3.01-5.64,5.26-7.8,2.26-2.16,4.84-3.82,7.75-4.98s6.03-1.74,9.35-1.74c4.76,0,8.77,1.03,12.03,3.1s5.72,4.92,7.38,8.55c1.66,3.64,2.49,7.77,2.49,12.41v3.76h-33.84c.44,2.57,1.32,4.67,2.63,6.3,1.32,1.63,3.01,2.84,5.08,3.62s4.39,1.17,6.96,1.17c1.63,0,3.32-.14,5.08-.42,1.75-.28,3.51-.67,5.26-1.18l4.23-1.22,3.2,7.8-3.67,1.79c-2.51,1.19-5.08,2.08-7.71,2.68-2.63.59-5.2.89-7.71.89h0ZM542.1,99.26h22.18c-.5-2.88-1.63-5.12-3.38-6.72s-4.17-2.4-7.24-2.4c-2.01,0-3.78.36-5.31,1.08-1.54.72-2.84,1.77-3.9,3.15-1.07,1.38-1.85,3.01-2.35,4.89Z"/>
          <path class="cls-2" d="M586.66,128.59V62.79h29.7c4.83,0,8.95.88,12.36,2.63,3.42,1.75,6.03,4.28,7.85,7.57,1.82,3.29,2.73,7.25,2.73,11.89s-.94,8.68-2.82,12.13-4.54,6.09-7.99,7.94-7.52,2.77-12.22,2.77h-17.39l.09,20.87h-12.31ZM598.97,96.91h15.6c3.88,0,6.88-.97,8.98-2.91s3.15-4.92,3.15-8.93-1.05-7.08-3.15-8.84c-2.1-1.75-5.09-2.63-8.98-2.63h-15.6v23.31Z"/>
          <path class="cls-2" d="M653.87,128.59v-37.41h-10.34v-8.27l10.34-2.07v-8.08c0-3.76.72-6.78,2.16-9.07s3.41-3.96,5.92-5.03c2.51-1.06,5.39-1.6,8.65-1.6,1.63,0,3.35.16,5.17.47s3.63.72,5.45,1.22l1.03.28-1.6,9.12-1.22-.19c-1-.12-1.94-.25-2.82-.38-.88-.12-1.69-.19-2.44-.19-2.7,0-4.78.5-6.25,1.5s-2.21,2.73-2.21,5.17v6.77h14.48v10.34h-14.48v37.41h-11.84Z"/>
          <path class="cls-2" d="M698.52,129.34c-2.57,0-5.01-.49-7.33-1.46s-4.2-2.46-5.64-4.46-2.16-4.51-2.16-7.52c0-4.01,1.28-7.19,3.85-9.54,2.57-2.35,6.2-3.99,10.9-4.93l14.38-3.01v-.19c0-2.76-.85-4.76-2.54-6.02-1.69-1.25-4.29-1.88-7.8-1.88-2.01,0-4.06.13-6.16.38s-4.06.56-5.88.94l-2.16.47-1.97-7.8,2.35-.85c3.13-1.13,6.06-1.97,8.79-2.54,2.73-.56,5.44-.85,8.13-.85,5.64,0,10.21,1.5,13.72,4.51,3.51,3.01,5.26,7.55,5.26,13.63v17.48c0,1.94.45,3.24,1.36,3.9.91.66,2.8,1.11,5.69,1.36l-.66,7.8c-.82.19-1.6.33-2.35.42s-1.41.14-1.97.14c-3.26,0-5.84-.74-7.75-2.21s-3.34-3.27-4.28-5.41l-2.16,1.97c-2.07,1.88-4.31,3.29-6.72,4.23s-4.72,1.41-6.91,1.41v.03ZM702.09,119.47c1.25,0,2.6-.25,4.04-.75s2.88-1.25,4.32-2.26l2.07-1.41v-9.68l-12.69,3.57c-1.82.5-3.1,1.22-3.85,2.16s-1.13,2.04-1.13,3.29c0,1.63.63,2.88,1.88,3.76,1.25.88,3.04,1.32,5.36,1.32Z"/>
          <path class="cls-2" d="M755.58,129.34c-3.45,0-6.47-.67-9.07-2.02-2.6-1.35-4.78-3.18-6.53-5.5s-3.09-4.95-4-7.9c-.91-2.94-1.36-6.02-1.36-9.21s.45-6.45,1.36-9.4c.91-2.94,2.27-5.56,4.09-7.85s4.03-4.09,6.63-5.41c2.6-1.32,5.59-1.97,8.98-1.97,1.69,0,3.51.2,5.45.61s3.79,1.02,5.55,1.83l2.82,1.22v-24.53l11.84-3.01v72.38h-8.93l-.94-5.83-2.91,1.97c-2.07,1.38-4.2,2.49-6.39,3.34-2.19.85-4.39,1.27-6.58,1.27h-.01ZM746.65,104.62c0,3.01.45,5.59,1.36,7.75s2.27,3.81,4.09,4.93c1.82,1.13,4.1,1.69,6.86,1.69,1.06,0,2.22-.17,3.48-.52,1.25-.34,2.54-.92,3.85-1.74l3.2-1.97v-21.43l-3.2-1.41c-1.19-.5-2.4-.89-3.62-1.17s-2.43-.42-3.62-.42c-2.44,0-4.61.52-6.49,1.55-1.88,1.03-3.34,2.6-4.37,4.7-1.03,2.1-1.55,4.78-1.55,8.04h.01Z"/>
          <path class="cls-2" d="M822.03,128.59V62.79h30.93c4.51,0,8.26.75,11.23,2.26,2.98,1.5,5.22,3.56,6.72,6.16s2.26,5.59,2.26,8.98c0,2.88-.53,5.63-1.6,8.23-1.07,2.6-3.17,4.62-6.3,6.06v.09c3.01.88,5.51,2.6,7.52,5.17,2,2.57,3.01,5.64,3.01,9.21,0,3.95-.85,7.39-2.54,10.34s-4.15,5.23-7.38,6.86-7.19,2.44-11.89,2.44h-31.96ZM834.35,89.58h18.61c2.82,0,4.94-.67,6.35-2.02s2.12-3.37,2.12-6.06-.74-4.53-2.21-5.88c-1.47-1.35-3.81-2.02-7-2.02h-17.86v15.98h0ZM834.35,117.78h18.99c3.32,0,5.8-.74,7.43-2.21s2.44-3.78,2.44-6.91c0-2.76-.81-4.82-2.44-6.2s-3.92-2.07-6.86-2.07h-19.55v17.39h-.01Z"/>
          <path class="cls-2" d="M898.46,129.34c-2.57,0-5.01-.49-7.33-1.46s-4.2-2.46-5.64-4.46-2.16-4.51-2.16-7.52c0-4.01,1.28-7.19,3.85-9.54,2.57-2.35,6.2-3.99,10.9-4.93l14.38-3.01v-.19c0-2.76-.85-4.76-2.54-6.02-1.69-1.25-4.29-1.88-7.8-1.88-2.01,0-4.06.13-6.16.38s-4.06.56-5.88.94l-2.16.47-1.97-7.8,2.35-.85c3.13-1.13,6.06-1.97,8.79-2.54,2.73-.56,5.44-.85,8.13-.85,5.64,0,10.21,1.5,13.72,4.51,3.51,3.01,5.26,7.55,5.26,13.63v17.48c0,1.94.45,3.24,1.36,3.9.91.66,2.8,1.11,5.69,1.36l-.66,7.8c-.82.19-1.6.33-2.35.42s-1.41.14-1.97.14c-3.26,0-5.84-.74-7.75-2.21s-3.34-3.27-4.28-5.41l-2.16,1.97c-2.07,1.88-4.31,3.29-6.72,4.23s-4.72,1.41-6.91,1.41v.03ZM902.03,119.47c1.25,0,2.6-.25,4.04-.75s2.88-1.25,4.32-2.26l2.07-1.41v-9.68l-12.69,3.57c-1.82.5-3.1,1.22-3.85,2.16s-1.13,2.04-1.13,3.29c0,1.63.63,2.88,1.88,3.76,1.25.88,3.04,1.32,5.36,1.32Z"/>
          <path class="cls-2" d="M942.36,148.23c-1.07,0-2.33-.11-3.81-.33-1.47-.22-3.09-.55-4.84-.99l-3.57-1.03,1.69-9.21,3.2.38c1.06.06,2.08.12,3.05.19.97.06,1.8.09,2.49.09,1.63,0,2.95-.33,3.95-.99s1.79-1.71,2.35-3.15l1.88-4.98-19.08-47.38h12.88l12.31,33.46h.47l12.22-33.46h12.31l-23.88,58.28c-1.32,3.26-3.09,5.59-5.31,7-2.23,1.41-5,2.12-8.32,2.12h.01Z"/>
          <path class="cls-2" d="M1007.69,129.34c-4.64,0-8.9-.94-12.78-2.82-3.89-1.88-7-4.65-9.35-8.32-2.35-3.67-3.52-8.13-3.52-13.39,0-3.76.62-7.16,1.88-10.2,1.25-3.04,3.01-5.64,5.26-7.8,2.26-2.16,4.84-3.82,7.75-4.98s6.03-1.74,9.35-1.74c4.76,0,8.77,1.03,12.03,3.1s5.72,4.92,7.38,8.55c1.66,3.64,2.49,7.77,2.49,12.41v3.76h-33.84c.44,2.57,1.32,4.67,2.63,6.3,1.32,1.63,3.01,2.84,5.08,3.62s4.39,1.17,6.96,1.17c1.63,0,3.32-.14,5.08-.42,1.75-.28,3.51-.67,5.26-1.18l4.23-1.22,3.2,7.8-3.67,1.79c-2.51,1.19-5.08,2.08-7.71,2.68-2.63.59-5.2.89-7.71.89h0ZM994.71,99.26h22.18c-.5-2.88-1.63-5.12-3.38-6.72s-4.17-2.4-7.24-2.4c-2.01,0-3.78.36-5.31,1.08-1.54.72-2.84,1.77-3.9,3.15-1.07,1.38-1.85,3.01-2.35,4.89Z"/>
          <path class="cls-2" d="M1038.05,128.59v-47.75h8.65l1.22,5.83,3.57-2.54c1.82-1.25,3.76-2.24,5.83-2.96s4.04-1.08,5.92-1.08c.69,0,1.39.11,2.11.33s1.42.58,2.12,1.08v9.4c-1.94.06-3.81.25-5.59.56-1.79.31-3.81.91-6.06,1.79l-5.92,2.16v33.18h-11.85Z"/>
          <path class="cls-2" d="M1075.74,128.59v-47.75h9.02l.85,4.89,3.1-1.69c2.32-1.25,4.64-2.22,6.96-2.91s4.61-1.03,6.86-1.03c3.82,0,6.92.72,9.31,2.16,2.38,1.44,4.15,3.38,5.31,5.83,1.16,2.45,1.74,5.2,1.74,8.27v32.24h-11.84v-29.33c0-2.76-.69-4.86-2.07-6.3s-3.64-2.16-6.77-2.16c-1.32,0-2.58.17-3.81.52-1.22.34-2.49.83-3.81,1.46l-3.01,1.32v34.5h-11.84v-.02Z"/>
        </g>
        <g>
          <path class="cls-1" d="M289.14,182.45v-23.8h8.87c2.52,0,4.71.46,6.6,1.38,1.88.92,3.34,2.26,4.39,4.03,1.04,1.77,1.56,3.94,1.56,6.53s-.52,4.6-1.56,6.38c-1.04,1.78-2.53,3.14-4.45,4.08-1.93.94-4.21,1.41-6.83,1.41h-8.57ZM293.6,178.54h4.28c1.77,0,3.25-.31,4.45-.93,1.2-.62,2.11-1.52,2.74-2.7.62-1.18.94-2.62.94-4.32,0-1.81-.3-3.31-.9-4.5-.6-1.19-1.5-2.07-2.7-2.65-1.2-.58-2.71-.87-4.52-.87h-4.28v15.98Z"/>
          <path class="cls-1" d="M323.08,182.73c-1.68,0-3.22-.34-4.62-1.02-1.41-.68-2.53-1.68-3.38-3.01-.85-1.33-1.28-2.94-1.28-4.84,0-1.36.23-2.59.68-3.69.45-1.1,1.09-2.04,1.9-2.82.82-.78,1.75-1.38,2.81-1.8,1.05-.42,2.18-.63,3.38-.63,1.72,0,3.17.37,4.35,1.12s2.07,1.78,2.67,3.09c.6,1.32.9,2.81.9,4.49v1.36h-12.24c.16.93.48,1.69.95,2.28.48.59,1.09,1.03,1.84,1.31s1.59.42,2.52.42c.59,0,1.2-.05,1.84-.15.63-.1,1.27-.24,1.9-.42l1.53-.44,1.16,2.82-1.33.65c-.91.43-1.84.75-2.79.97-.95.21-1.88.32-2.79.32ZM318.38,171.84h8.02c-.18-1.04-.59-1.85-1.22-2.43-.63-.58-1.51-.87-2.62-.87-.73,0-1.37.13-1.92.39-.56.26-1.03.64-1.41,1.14-.39.5-.67,1.09-.85,1.77Z"/>
          <path class="cls-1" d="M334.06,182.45v-17.27h3.13l.44,2.11,1.29-.92c.66-.45,1.36-.81,2.11-1.07.75-.26,1.46-.39,2.14-.39.25,0,.5.04.76.12.26.08.52.21.77.39v3.4c-.7.02-1.38.09-2.02.2s-1.38.33-2.19.65l-2.14.78v12h-4.28Z"/>
          <path class="cls-1" d="M366.44,182.66l-7.89-24h4.76l5.37,17.95h.07l5.24-18.09h4.49l5.41,17.82h.1l5.51-17.68h4.45l-7.72,24h-4.79l-5.13-17.41h-.07l-5.1,17.41h-4.69Z"/>
          <path class="cls-1" d="M403.22,182.73c-1.68,0-3.22-.34-4.62-1.02-1.41-.68-2.53-1.68-3.38-3.01-.85-1.33-1.28-2.94-1.28-4.84,0-1.36.23-2.59.68-3.69.45-1.1,1.09-2.04,1.9-2.82.82-.78,1.75-1.38,2.81-1.8,1.05-.42,2.18-.63,3.38-.63,1.72,0,3.17.37,4.35,1.12s2.07,1.78,2.67,3.09c.6,1.32.9,2.81.9,4.49v1.36h-12.24c.16.93.48,1.69.95,2.28.48.59,1.09,1.03,1.84,1.31s1.59.42,2.52.42c.59,0,1.2-.05,1.84-.15.63-.1,1.27-.24,1.9-.42l1.53-.44,1.16,2.82-1.33.65c-.91.43-1.84.75-2.79.97-.95.21-1.88.32-2.79.32ZM398.53,171.84h8.02c-.18-1.04-.59-1.85-1.22-2.43-.63-.58-1.51-.87-2.62-.87-.73,0-1.37.13-1.92.39-.56.26-1.03.64-1.41,1.14-.39.5-.67,1.09-.85,1.77Z"/>
          <path class="cls-1" d="M421.92,189.56c-.84,0-1.77-.08-2.79-.24-1.02-.16-2-.37-2.92-.65l-1.16-.34.75-3.13,1.16.2c.68.11,1.42.21,2.21.31.79.09,1.52.14,2.18.14,1.45,0,2.58-.23,3.38-.7.8-.46,1.21-1.32,1.21-2.57v-2.07l-.99.41c-.63.27-1.3.48-2.01.63-.7.15-1.36.22-1.97.22-1.22,0-2.31-.23-3.25-.68-.94-.45-1.74-1.07-2.4-1.85-.66-.78-1.15-1.68-1.48-2.7-.33-1.02-.49-2.08-.49-3.2,0-1.45.29-2.82.87-4.1.58-1.28,1.43-2.32,2.55-3.13,1.12-.8,2.51-1.21,4.17-1.21.79,0,1.59.15,2.38.44.79.29,1.56.7,2.31,1.22l1.02.71.41-2.11h3.16v17.17c0,1.68-.35,3.05-1.04,4.11s-1.66,1.85-2.91,2.35c-1.25.5-2.7.75-4.35.75ZM417.71,173.37c0,1,.19,1.83.56,2.5.37.67.9,1.17,1.58,1.5.68.33,1.46.49,2.35.49.43,0,.87-.04,1.33-.14.45-.09.9-.2,1.33-.34l1.09-.37v-6.73l-.95-.54c-.54-.32-1.05-.54-1.51-.68-.46-.14-.9-.2-1.31-.2-.95,0-1.76.19-2.43.56s-1.17.9-1.51,1.58c-.34.68-.51,1.47-.51,2.38Z"/>
          <path class="cls-1" d="M444.3,182.73c-.73,0-1.49-.14-2.29-.43-.8-.28-1.6-.7-2.4-1.24l-1.39-.95.85-2.96,1.53.92c.45.27.91.46,1.36.58.45.11.9.17,1.33.17.91,0,1.68-.19,2.31-.58.63-.39,1.12-.95,1.45-1.7.33-.75.49-1.67.49-2.75s-.18-2.01-.53-2.75c-.35-.75-.86-1.31-1.53-1.68-.67-.37-1.48-.56-2.43-.56-.39,0-.79.04-1.22.12s-.9.21-1.39.39l-1.16.41v8.87l-.51.71-.54,3.16h-3.23v-25.09l4.28-1.09v11.66l-1.26-1.12,2.28-1.02c.59-.27,1.24-.49,1.96-.65.71-.16,1.39-.24,2.02-.24,1.5,0,2.82.38,3.96,1.14,1.14.76,2.04,1.81,2.69,3.15.65,1.34.97,2.88.97,4.62s-.32,3.26-.97,4.61c-.65,1.35-1.54,2.4-2.69,3.16-1.15.76-2.45,1.14-3.93,1.14Z"/>
          <path class="cls-1" d="M464.22,182.73c-1.68,0-3.22-.34-4.62-1.02-1.41-.68-2.53-1.68-3.38-3.01-.85-1.33-1.28-2.94-1.28-4.84,0-1.36.23-2.59.68-3.69.45-1.1,1.09-2.04,1.9-2.82.82-.78,1.75-1.38,2.81-1.8,1.05-.42,2.18-.63,3.38-.63,1.72,0,3.17.37,4.35,1.12s2.07,1.78,2.67,3.09c.6,1.32.9,2.81.9,4.49v1.36h-12.24c.16.93.48,1.69.95,2.28.48.59,1.09,1.03,1.84,1.31s1.59.42,2.52.42c.59,0,1.2-.05,1.84-.15.63-.1,1.27-.24,1.9-.42l1.53-.44,1.16,2.82-1.33.65c-.91.43-1.84.75-2.79.97-.95.21-1.88.32-2.79.32ZM459.53,171.84h8.02c-.18-1.04-.59-1.85-1.22-2.43-.63-.58-1.51-.87-2.62-.87-.73,0-1.37.13-1.92.39-.56.26-1.03.64-1.41,1.14-.39.5-.67,1.09-.85,1.77Z"/>
          <path class="cls-1" d="M482.92,189.56c-.84,0-1.77-.08-2.79-.24-1.02-.16-2-.37-2.92-.65l-1.16-.34.75-3.13,1.16.2c.68.11,1.42.21,2.21.31.79.09,1.52.14,2.18.14,1.45,0,2.58-.23,3.38-.7.8-.46,1.21-1.32,1.21-2.57v-2.07l-.99.41c-.63.27-1.3.48-2.01.63-.7.15-1.36.22-1.97.22-1.22,0-2.31-.23-3.25-.68-.94-.45-1.74-1.07-2.4-1.85-.66-.78-1.15-1.68-1.48-2.7-.33-1.02-.49-2.08-.49-3.2,0-1.45.29-2.82.87-4.1.58-1.28,1.43-2.32,2.55-3.13,1.12-.8,2.51-1.21,4.17-1.21.79,0,1.59.15,2.38.44.79.29,1.56.7,2.31,1.22l1.02.71.41-2.11h3.16v17.17c0,1.68-.35,3.05-1.04,4.11s-1.66,1.85-2.91,2.35c-1.25.5-2.7.75-4.35.75ZM478.7,173.37c0,1,.19,1.83.56,2.5.37.67.9,1.17,1.58,1.5.68.33,1.46.49,2.35.49.43,0,.87-.04,1.33-.14.45-.09.9-.2,1.33-.34l1.09-.37v-6.73l-.95-.54c-.54-.32-1.05-.54-1.51-.68-.46-.14-.9-.2-1.31-.2-.95,0-1.76.19-2.43.56s-1.17.9-1.51,1.58c-.34.68-.51,1.47-.51,2.38Z"/>
          <path class="cls-1" d="M500.77,182.73c-1.77,0-3.04-.41-3.81-1.22-.77-.82-1.16-1.88-1.16-3.2v-20.94l4.28-1.09v21.08c0,.52.15.92.46,1.21.31.28.82.42,1.55.42.18,0,.39,0,.61-.02.23-.01.45-.03.68-.05l-.1,3.3c-.41.16-.83.28-1.27.37s-.86.14-1.24.14Z"/>
          <path class="cls-1" d="M514.17,182.73c-1.68,0-3.22-.34-4.62-1.02-1.41-.68-2.53-1.68-3.38-3.01-.85-1.33-1.28-2.94-1.28-4.84,0-1.36.23-2.59.68-3.69.45-1.1,1.09-2.04,1.9-2.82.82-.78,1.75-1.38,2.81-1.8,1.05-.42,2.18-.63,3.38-.63,1.72,0,3.17.37,4.35,1.12s2.07,1.78,2.67,3.09c.6,1.32.9,2.81.9,4.49v1.36h-12.24c.16.93.48,1.69.95,2.28.48.59,1.09,1.03,1.84,1.31s1.59.42,2.52.42c.59,0,1.2-.05,1.84-.15.63-.1,1.27-.24,1.9-.42l1.53-.44,1.16,2.82-1.33.65c-.91.43-1.84.75-2.79.97-.95.21-1.88.32-2.79.32ZM509.47,171.84h8.02c-.18-1.04-.59-1.85-1.22-2.43-.63-.58-1.51-.87-2.62-.87-.73,0-1.37.13-1.92.39-.56.26-1.03.64-1.41,1.14-.39.5-.67,1.09-.85,1.77Z"/>
          <path class="cls-1" d="M527.29,161.81c-.5,0-.96-.12-1.39-.37-.43-.25-.77-.58-1.02-.99-.25-.41-.37-.86-.37-1.36s.12-.92.37-1.33c.25-.41.59-.73,1.02-.97.43-.24.9-.36,1.39-.36s.99.12,1.41.36c.42.24.75.56,1,.97.25.41.37.85.37,1.33,0,.5-.12.95-.37,1.36-.25.41-.58.74-1,.99-.42.25-.89.37-1.41.37ZM525.15,182.45v-17.27h4.28v17.27h-4.28Z"/>
          <path class="cls-1" d="M541.06,182.73c-1.7,0-2.99-.37-3.88-1.12-.88-.75-1.33-1.96-1.33-3.64v-9.04h-3.71v-2.99l3.71-.75v-4.01l4.28-1.29v5.3h5.37v3.74h-5.37v7.68c0,.82.14,1.43.42,1.84s.95.61,1.99.61c.29,0,.6-.01.92-.03s.66-.06,1.02-.1l.88-.1.48,3.09-.78.2c-.63.16-1.31.3-2.02.42s-1.38.19-1.99.19Z"/>
          <path class="cls-1" d="M556.9,182.73c-1.68,0-3.22-.34-4.62-1.02-1.41-.68-2.53-1.68-3.38-3.01-.85-1.33-1.28-2.94-1.28-4.84,0-1.36.23-2.59.68-3.69.45-1.1,1.09-2.04,1.9-2.82.82-.78,1.75-1.38,2.8-1.8,1.05-.42,2.18-.63,3.38-.63,1.72,0,3.17.37,4.35,1.12,1.18.75,2.07,1.78,2.67,3.09.6,1.32.9,2.81.9,4.49v1.36h-12.24c.16.93.48,1.69.95,2.28.48.59,1.09,1.03,1.84,1.31.75.28,1.59.42,2.52.42.59,0,1.2-.05,1.84-.15.63-.1,1.27-.24,1.9-.42l1.53-.44,1.16,2.82-1.33.65c-.91.43-1.84.75-2.79.97-.95.21-1.88.32-2.79.32ZM552.21,171.84h8.02c-.18-1.04-.59-1.85-1.22-2.43s-1.51-.87-2.62-.87c-.73,0-1.37.13-1.92.39s-1.03.64-1.41,1.14c-.39.5-.67,1.09-.85,1.77Z"/>
          <path class="cls-1" d="M567.89,182.45v-17.27h3.13l.44,2.11,1.29-.92c.66-.45,1.36-.81,2.11-1.07.75-.26,1.46-.39,2.14-.39.25,0,.5.04.76.12s.52.21.77.39v3.4c-.7.02-1.38.09-2.02.2-.65.11-1.38.33-2.19.65l-2.14.78v12h-4.28Z"/>
          <path class="cls-1" d="M595.44,182.45v-13.53h-3.74v-2.99l3.74-.75v-2.92c0-1.36.26-2.45.78-3.28.52-.83,1.23-1.43,2.14-1.82.91-.39,1.95-.58,3.13-.58.59,0,1.21.06,1.87.17.66.11,1.31.26,1.97.44l.37.1-.58,3.3-.44-.07c-.36-.05-.7-.09-1.02-.14-.32-.04-.61-.07-.88-.07-.97,0-1.73.18-2.26.54-.53.36-.8.99-.8,1.87v2.45h5.24v3.74h-5.24v13.53h-4.28Z"/>
          <path class="cls-1" d="M613.22,182.73c-1.93,0-3.35-.54-4.27-1.62s-1.38-2.5-1.38-4.27v-11.66h4.28v10.61c0,1.07.25,1.84.75,2.33.5.49,1.24.73,2.21.73.43,0,.84-.06,1.24-.19.4-.12.8-.28,1.21-.46l1.22-.58v-12.44h4.28v17.27h-3.26l-.48-2.82.88.68-1.87,1.02c-.84.45-1.66.8-2.46,1.04-.81.24-1.59.36-2.36.36ZM611.18,161.54c-.45,0-.88-.11-1.28-.32-.4-.21-.71-.51-.93-.88s-.34-.79-.34-1.24c0-.43.11-.83.34-1.19s.54-.66.93-.88.82-.34,1.28-.34.87.11,1.26.34c.38.23.69.52.92.88s.34.76.34,1.19c0,.45-.11.87-.34,1.24s-.53.67-.92.88c-.39.22-.8.32-1.26.32ZM619.37,161.54c-.45,0-.88-.11-1.28-.32-.4-.21-.71-.51-.93-.88-.23-.37-.34-.79-.34-1.24,0-.43.11-.83.34-1.19.23-.36.54-.66.93-.88s.82-.34,1.28-.34.87.11,1.26.34c.38.23.69.52.92.88.23.36.34.76.34,1.19,0,.45-.11.87-.34,1.24-.23.37-.53.67-.92.88-.39.22-.8.32-1.26.32Z"/>
          <path class="cls-1" d="M627.53,182.45v-17.27h3.13l.44,2.11,1.29-.92c.66-.45,1.36-.81,2.11-1.07.75-.26,1.46-.39,2.14-.39.25,0,.5.04.76.12s.52.21.77.39v3.4c-.7.02-1.38.09-2.02.2-.65.11-1.38.33-2.19.65l-2.14.78v12h-4.28Z"/>
          <path class="cls-1" d="M653.82,182.45v-23.8h11.19c1.63,0,2.99.27,4.06.82,1.08.54,1.89,1.29,2.43,2.23s.82,2.02.82,3.25c0,1.04-.19,2.03-.58,2.97-.39.94-1.15,1.67-2.28,2.19v.03c1.09.32,1.99.94,2.72,1.87.73.93,1.09,2.04,1.09,3.33,0,1.43-.31,2.67-.92,3.74-.61,1.07-1.5,1.89-2.67,2.48-1.17.59-2.6.88-4.3.88h-11.56ZM658.28,168.34h6.73c1.02,0,1.79-.24,2.29-.73.51-.49.77-1.22.77-2.19s-.27-1.64-.8-2.12c-.53-.49-1.38-.73-2.53-.73h-6.46v5.78ZM658.28,178.54h6.87c1.2,0,2.1-.27,2.69-.8.59-.53.88-1.37.88-2.5,0-1-.29-1.75-.88-2.24-.59-.5-1.42-.75-2.48-.75h-7.07v6.29Z"/>
          <path class="cls-1" d="M685.61,182.73c-1.68,0-3.22-.34-4.62-1.02-1.41-.68-2.53-1.68-3.38-3.01-.85-1.33-1.27-2.94-1.27-4.84,0-1.36.23-2.59.68-3.69.45-1.1,1.09-2.04,1.9-2.82.82-.78,1.75-1.38,2.8-1.8,1.05-.42,2.18-.63,3.38-.63,1.72,0,3.17.37,4.35,1.12,1.18.75,2.07,1.78,2.67,3.09.6,1.32.9,2.81.9,4.49v1.36h-12.24c.16.93.48,1.69.95,2.28.48.59,1.09,1.03,1.84,1.31.75.28,1.59.42,2.52.42.59,0,1.2-.05,1.84-.15.63-.1,1.27-.24,1.9-.42l1.53-.44,1.16,2.82-1.33.65c-.91.43-1.84.75-2.79.97-.95.21-1.88.32-2.79.32ZM680.92,171.84h8.02c-.18-1.04-.59-1.85-1.22-2.43s-1.51-.87-2.62-.87c-.73,0-1.37.13-1.92.39s-1.03.64-1.41,1.14c-.39.5-.67,1.09-.85,1.77Z"/>
          <path class="cls-1" d="M703.46,182.73c-1.7,0-2.99-.37-3.88-1.12s-1.33-1.96-1.33-3.64v-9.04h-3.71v-2.99l3.71-.75v-4.01l4.28-1.29v5.3h5.37v3.74h-5.37v7.68c0,.82.14,1.43.42,1.84s.95.61,1.99.61c.29,0,.6-.01.92-.03s.66-.06,1.02-.1l.88-.1.48,3.09-.78.2c-.63.16-1.31.3-2.02.42s-1.38.19-1.99.19Z"/>
          <path class="cls-1" d="M711.38,182.45v-17.27h3.13l.44,2.11,1.29-.92c.66-.45,1.36-.81,2.11-1.07.75-.26,1.46-.39,2.14-.39.25,0,.5.04.76.12s.52.21.77.39v3.4c-.7.02-1.38.09-2.02.2-.65.11-1.38.33-2.19.65l-2.14.78v12h-4.28Z"/>
          <path class="cls-1" d="M732.36,182.73c-1.77,0-3.3-.38-4.61-1.14-1.3-.76-2.31-1.81-3.03-3.14-.71-1.34-1.07-2.88-1.07-4.62s.37-3.32,1.1-4.66c.74-1.34,1.76-2.38,3.08-3.13s2.84-1.12,4.59-1.12,3.3.38,4.59,1.14c1.29.76,2.29,1.81,2.99,3.15.7,1.34,1.05,2.88,1.05,4.62s-.36,3.29-1.09,4.64-1.74,2.4-3.04,3.15-2.83,1.12-4.57,1.12ZM732.4,179.02c.88,0,1.64-.2,2.28-.61s1.13-1,1.48-1.79c.35-.78.53-1.72.53-2.8s-.17-2.05-.51-2.82-.83-1.36-1.48-1.77c-.65-.41-1.41-.61-2.3-.61s-1.65.2-2.31.61c-.66.41-1.17,1-1.53,1.77s-.54,1.71-.54,2.82.18,2.02.54,2.8.87,1.38,1.53,1.79c.66.41,1.43.61,2.31.61Z"/>
          <path class="cls-1" d="M746.68,182.45v-13.53h-3.74v-2.99l3.74-.75v-2.92c0-1.36.26-2.45.78-3.28.52-.83,1.23-1.43,2.14-1.82.91-.39,1.95-.58,3.13-.58.59,0,1.21.06,1.87.17.66.11,1.31.26,1.97.44l.37.1-.58,3.3-.44-.07c-.36-.05-.7-.09-1.02-.14-.32-.04-.61-.07-.88-.07-.97,0-1.73.18-2.26.54-.53.36-.8.99-.8,1.87v2.45h5.24v3.74h-5.24v13.53h-4.28Z"/>
          <path class="cls-1" d="M761.09,182.45v-13.53h-3.74v-2.99l3.74-.75v-2.92c0-1.36.26-2.45.78-3.28.52-.83,1.23-1.43,2.14-1.82.91-.39,1.95-.58,3.13-.58.59,0,1.21.06,1.87.17.66.11,1.31.26,1.97.44l.37.1-.58,3.3-.44-.07c-.36-.05-.7-.09-1.02-.14-.32-.04-.61-.07-.88-.07-.97,0-1.73.18-2.26.54-.53.36-.8.99-.8,1.87v2.45h5.24v3.74h-5.24v13.53h-4.28Z"/>
          <path class="cls-1" d="M781.56,182.73c-1.68,0-3.22-.34-4.62-1.02-1.41-.68-2.53-1.68-3.38-3.01-.85-1.33-1.27-2.94-1.27-4.84,0-1.36.23-2.59.68-3.69.45-1.1,1.09-2.04,1.9-2.82.82-.78,1.75-1.38,2.8-1.8,1.05-.42,2.18-.63,3.38-.63,1.72,0,3.17.37,4.35,1.12,1.18.75,2.07,1.78,2.67,3.09.6,1.32.9,2.81.9,4.49v1.36h-12.24c.16.93.48,1.69.95,2.28.48.59,1.09,1.03,1.84,1.31.75.28,1.59.42,2.52.42.59,0,1.2-.05,1.84-.15.63-.1,1.27-.24,1.9-.42l1.53-.44,1.16,2.82-1.33.65c-.91.43-1.84.75-2.79.97-.95.21-1.88.32-2.79.32ZM776.87,171.84h8.02c-.18-1.04-.59-1.85-1.22-2.43s-1.51-.87-2.62-.87c-.73,0-1.37.13-1.92.39s-1.03.64-1.41,1.14c-.39.5-.67,1.09-.85,1.77Z"/>
          <path class="cls-1" d="M792.54,182.45v-17.27h3.26l.31,1.77,1.12-.61c.84-.45,1.68-.8,2.52-1.05.84-.25,1.67-.37,2.48-.37,1.38,0,2.5.26,3.37.78s1.5,1.22,1.92,2.11c.42.88.63,1.88.63,2.99v11.66h-4.28v-10.61c0-1-.25-1.76-.75-2.28-.5-.52-1.32-.78-2.45-.78-.48,0-.93.06-1.38.19-.44.12-.9.3-1.38.53l-1.09.48v12.48h-4.28Z"/>
          <path class="cls-1" d="M821.1,182.73c-1.68,0-3.22-.34-4.62-1.02-1.41-.68-2.53-1.68-3.38-3.01-.85-1.33-1.27-2.94-1.27-4.84,0-1.36.23-2.59.68-3.69.45-1.1,1.09-2.04,1.9-2.82.82-.78,1.75-1.38,2.8-1.8,1.05-.42,2.18-.63,3.38-.63,1.72,0,3.17.37,4.35,1.12,1.18.75,2.07,1.78,2.67,3.09.6,1.32.9,2.81.9,4.49v1.36h-12.24c.16.93.48,1.69.95,2.28.48.59,1.09,1.03,1.84,1.31.75.28,1.59.42,2.52.42.59,0,1.2-.05,1.84-.15.63-.1,1.27-.24,1.9-.42l1.53-.44,1.16,2.82-1.33.65c-.91.43-1.84.75-2.79.97-.95.21-1.88.32-2.79.32ZM816.41,171.84h8.02c-.18-1.04-.59-1.85-1.22-2.43s-1.51-.87-2.62-.87c-.73,0-1.37.13-1.92.39s-1.03.64-1.41,1.14c-.39.5-.67,1.09-.85,1.77Z"/>
          <path class="cls-1" d="M849.71,182.73c-1.93,0-3.35-.54-4.27-1.62s-1.38-2.5-1.38-4.27v-11.66h4.28v10.61c0,1.07.25,1.84.75,2.33.5.49,1.24.73,2.21.73.43,0,.84-.06,1.24-.19.4-.12.8-.28,1.21-.46l1.22-.58v-12.44h4.28v17.27h-3.26l-.48-2.82.88.68-1.87,1.02c-.84.45-1.66.8-2.46,1.04-.81.24-1.59.36-2.36.36Z"/>
          <path class="cls-1" d="M864.02,182.45v-17.27h3.26l.31,1.77,1.12-.61c.84-.45,1.68-.8,2.52-1.05.84-.25,1.67-.37,2.48-.37,1.38,0,2.5.26,3.37.78s1.5,1.22,1.92,2.11c.42.88.63,1.88.63,2.99v11.66h-4.28v-10.61c0-1-.25-1.76-.75-2.28-.5-.52-1.32-.78-2.45-.78-.48,0-.93.06-1.38.19-.44.12-.9.3-1.38.53l-1.09.48v12.48h-4.28Z"/>
          <path class="cls-1" d="M890.88,182.73c-1.25,0-2.34-.24-3.28-.73s-1.73-1.15-2.36-1.99c-.63-.84-1.12-1.79-1.44-2.86-.33-1.07-.49-2.18-.49-3.33s.16-2.33.49-3.4c.33-1.07.82-2.01,1.48-2.84.66-.83,1.46-1.48,2.4-1.96.94-.48,2.02-.71,3.25-.71.61,0,1.27.07,1.97.22.7.15,1.37.37,2.01.66l1.02.44v-8.87l4.28-1.09v26.18h-3.23l-.34-2.11-1.05.71c-.75.5-1.52.9-2.31,1.21-.79.31-1.59.46-2.38.46ZM887.65,173.78c0,1.09.16,2.02.49,2.8.33.78.82,1.38,1.48,1.79s1.48.61,2.48.61c.38,0,.8-.06,1.26-.19.45-.12.92-.33,1.39-.63l1.16-.71v-7.75l-1.16-.51c-.43-.18-.87-.32-1.31-.42-.44-.1-.88-.15-1.31-.15-.88,0-1.67.19-2.35.56-.68.37-1.21.94-1.58,1.7-.37.76-.56,1.73-.56,2.91Z"/>
          <path class="cls-1" d="M917.61,182.45v-23.8h4.45v23.8h-4.45Z"/>
          <path class="cls-1" d="M927.27,182.45v-17.27h3.26l.31,1.77,1.12-.61c.84-.45,1.68-.8,2.52-1.05.84-.25,1.67-.37,2.48-.37,1.38,0,2.5.26,3.37.78s1.5,1.22,1.92,2.11c.42.88.63,1.88.63,2.99v11.66h-4.28v-10.61c0-1-.25-1.76-.75-2.28-.5-.52-1.32-.78-2.45-.78-.48,0-.93.06-1.38.19-.44.12-.9.3-1.38.53l-1.09.48v12.48h-4.28Z"/>
          <path class="cls-1" d="M954.27,182.73c-1.7,0-2.99-.37-3.88-1.12s-1.33-1.96-1.33-3.64v-9.04h-3.71v-2.99l3.71-.75v-4.01l4.28-1.29v5.3h5.37v3.74h-5.37v7.68c0,.82.14,1.43.42,1.84s.95.61,1.99.61c.29,0,.6-.01.92-.03s.66-.06,1.02-.1l.88-.1.48,3.09-.78.2c-.63.16-1.31.3-2.02.42s-1.38.19-1.99.19Z"/>
          <path class="cls-1" d="M970.11,182.73c-1.68,0-3.22-.34-4.62-1.02-1.41-.68-2.53-1.68-3.38-3.01-.85-1.33-1.27-2.94-1.27-4.84,0-1.36.23-2.59.68-3.69.45-1.1,1.09-2.04,1.9-2.82.82-.78,1.75-1.38,2.8-1.8,1.05-.42,2.18-.63,3.38-.63,1.72,0,3.17.37,4.35,1.12,1.18.75,2.07,1.78,2.67,3.09.6,1.32.9,2.81.9,4.49v1.36h-12.24c.16.93.48,1.69.95,2.28.48.59,1.09,1.03,1.84,1.31.75.28,1.59.42,2.52.42.59,0,1.2-.05,1.84-.15.63-.1,1.27-.24,1.9-.42l1.53-.44,1.16,2.82-1.33.65c-.91.43-1.84.75-2.79.97-.95.21-1.88.32-2.79.32ZM965.42,171.84h8.02c-.18-1.04-.59-1.85-1.22-2.43s-1.51-.87-2.62-.87c-.73,0-1.37.13-1.92.39s-1.03.64-1.41,1.14c-.39.5-.67,1.09-.85,1.77Z"/>
          <path class="cls-1" d="M981.09,182.45v-17.27h3.13l.44,2.11,1.29-.92c.66-.45,1.36-.81,2.11-1.07.75-.26,1.46-.39,2.14-.39.25,0,.5.04.76.12s.52.21.77.39v3.4c-.7.02-1.38.09-2.02.2-.65.11-1.38.33-2.19.65l-2.14.78v12h-4.28Z"/>
          <path class="cls-1" d="M1002.65,182.73c-1.68,0-3.22-.34-4.62-1.02-1.41-.68-2.53-1.68-3.38-3.01-.85-1.33-1.27-2.94-1.27-4.84,0-1.36.23-2.59.68-3.69.45-1.1,1.09-2.04,1.9-2.82.82-.78,1.75-1.38,2.8-1.8,1.05-.42,2.18-.63,3.38-.63,1.72,0,3.17.37,4.35,1.12,1.18.75,2.07,1.78,2.67,3.09.6,1.32.9,2.81.9,4.49v1.36h-12.24c.16.93.48,1.69.95,2.28.48.59,1.09,1.03,1.84,1.31.75.28,1.59.42,2.52.42.59,0,1.2-.05,1.84-.15.63-.1,1.27-.24,1.9-.42l1.53-.44,1.16,2.82-1.33.65c-.91.43-1.84.75-2.79.97-.95.21-1.88.32-2.79.32ZM997.95,171.84h8.02c-.18-1.04-.59-1.85-1.22-2.43s-1.51-.87-2.62-.87c-.73,0-1.37.13-1.92.39s-1.03.64-1.41,1.14c-.39.5-.67,1.09-.85,1.77Z"/>
          <path class="cls-1" d="M1019.14,182.73c-.88,0-1.79-.09-2.7-.27s-1.84-.43-2.77-.75l-1.12-.37.71-3.06.95.17c.79.14,1.58.24,2.35.31s1.52.1,2.24.1c.93,0,1.63-.11,2.09-.32s.7-.56.7-1.04c0-.29-.06-.54-.19-.75-.12-.2-.4-.41-.82-.61-.42-.2-1.09-.43-2.02-.68-1.5-.41-2.67-.84-3.52-1.31-.85-.46-1.45-1.02-1.8-1.68-.35-.66-.53-1.47-.53-2.45.02-1.18.33-2.14.92-2.89.59-.75,1.39-1.3,2.41-1.67,1.02-.36,2.18-.54,3.47-.54.86,0,1.75.07,2.65.22.91.15,1.76.35,2.55.6l.68.24-.58,3.03-.58-.07c-.82-.11-1.54-.19-2.16-.22-.62-.03-1.18-.05-1.68-.05-1.11,0-1.98.1-2.6.29-.62.19-.93.49-.93.9,0,.29.08.53.25.7s.53.35,1.07.53c.54.18,1.37.42,2.48.71,1.41.36,2.49.77,3.25,1.22.76.45,1.29,1,1.58,1.63.29.63.44,1.41.44,2.31,0,1.36-.31,2.46-.94,3.31-.62.85-1.45,1.47-2.48,1.87-1.03.4-2.16.6-3.38.6Z"/>
          <path class="cls-1" d="M1034.81,182.73c-.88,0-1.79-.09-2.7-.27s-1.84-.43-2.77-.75l-1.12-.37.71-3.06.95.17c.79.14,1.58.24,2.35.31s1.52.1,2.24.1c.93,0,1.63-.11,2.09-.32s.7-.56.7-1.04c0-.29-.06-.54-.19-.75-.12-.2-.4-.41-.82-.61-.42-.2-1.09-.43-2.02-.68-1.5-.41-2.67-.84-3.52-1.31-.85-.46-1.45-1.02-1.8-1.68-.35-.66-.53-1.47-.53-2.45.02-1.18.33-2.14.92-2.89.59-.75,1.39-1.3,2.41-1.67,1.02-.36,2.18-.54,3.47-.54.86,0,1.75.07,2.65.22.91.15,1.76.35,2.55.6l.68.24-.58,3.03-.58-.07c-.82-.11-1.54-.19-2.16-.22-.62-.03-1.18-.05-1.68-.05-1.11,0-1.98.1-2.6.29-.62.19-.93.49-.93.9,0,.29.08.53.25.7s.53.35,1.07.53c.54.18,1.37.42,2.48.71,1.41.36,2.49.77,3.25,1.22.76.45,1.29,1,1.58,1.63.29.63.44,1.41.44,2.31,0,1.36-.31,2.46-.94,3.31-.62.85-1.45,1.47-2.48,1.87-1.03.4-2.16.6-3.38.6Z"/>
          <path class="cls-1" d="M1047.46,161.81c-.5,0-.96-.12-1.39-.37s-.77-.58-1.02-.99c-.25-.41-.37-.86-.37-1.36s.12-.92.37-1.33c.25-.41.59-.73,1.02-.97.43-.24.9-.36,1.39-.36s.99.12,1.41.36c.42.24.75.56,1,.97.25.41.37.85.37,1.33,0,.5-.12.95-.37,1.36-.25.41-.58.74-1,.99-.42.25-.89.37-1.41.37ZM1045.32,182.45v-17.27h4.28v17.27h-4.28Z"/>
          <path class="cls-1" d="M1062.79,182.73c-1.68,0-3.22-.34-4.62-1.02-1.41-.68-2.53-1.68-3.38-3.01-.85-1.33-1.27-2.94-1.27-4.84,0-1.36.23-2.59.68-3.69.45-1.1,1.09-2.04,1.9-2.82.82-.78,1.75-1.38,2.8-1.8,1.05-.42,2.18-.63,3.38-.63,1.72,0,3.17.37,4.35,1.12,1.18.75,2.07,1.78,2.67,3.09.6,1.32.9,2.81.9,4.49v1.36h-12.24c.16.93.48,1.69.95,2.28.48.59,1.09,1.03,1.84,1.31.75.28,1.59.42,2.52.42.59,0,1.2-.05,1.84-.15.63-.1,1.27-.24,1.9-.42l1.53-.44,1.16,2.82-1.33.65c-.91.43-1.84.75-2.79.97-.95.21-1.88.32-2.79.32ZM1058.1,171.84h8.02c-.18-1.04-.59-1.85-1.22-2.43s-1.51-.87-2.62-.87c-.73,0-1.37.13-1.92.39s-1.03.64-1.41,1.14c-.39.5-.67,1.09-.85,1.77Z"/>
          <path class="cls-1" d="M1073.77,182.45v-17.27h3.13l.44,2.11,1.29-.92c.66-.45,1.36-.81,2.11-1.07.75-.26,1.46-.39,2.14-.39.25,0,.5.04.76.12s.52.21.77.39v3.4c-.7.02-1.38.09-2.02.2-.65.11-1.38.33-2.19.65l-2.14.78v12h-4.28Z"/>
          <path class="cls-1" d="M1094.45,182.73c-1.7,0-2.99-.37-3.88-1.12s-1.33-1.96-1.33-3.64v-9.04h-3.71v-2.99l3.71-.75v-4.01l4.28-1.29v5.3h5.37v3.74h-5.37v7.68c0,.82.14,1.43.42,1.84s.95.61,1.99.61c.29,0,.6-.01.92-.03s.66-.06,1.02-.1l.88-.1.48,3.09-.78.2c-.63.16-1.31.3-2.02.42s-1.38.19-1.99.19Z"/>
          <path class="cls-1" d="M1110.29,182.73c-1.68,0-3.22-.34-4.62-1.02-1.41-.68-2.53-1.68-3.38-3.01-.85-1.33-1.27-2.94-1.27-4.84,0-1.36.23-2.59.68-3.69.45-1.1,1.09-2.04,1.9-2.82.82-.78,1.75-1.38,2.8-1.8,1.05-.42,2.18-.63,3.38-.63,1.72,0,3.17.37,4.35,1.12,1.18.75,2.07,1.78,2.67,3.09.6,1.32.9,2.81.9,4.49v1.36h-12.24c.16.93.48,1.69.95,2.28.48.59,1.09,1.03,1.84,1.31.75.28,1.59.42,2.52.42.59,0,1.2-.05,1.84-.15.63-.1,1.27-.24,1.9-.42l1.53-.44,1.16,2.82-1.33.65c-.91.43-1.84.75-2.79.97-.95.21-1.88.32-2.79.32ZM1105.6,171.84h8.02c-.18-1.04-.59-1.85-1.22-2.43s-1.51-.87-2.62-.87c-.73,0-1.37.13-1.92.39s-1.03.64-1.41,1.14c-.39.5-.67,1.09-.85,1.77Z"/>
        </g>
      </g>
    </g>
  </g>
</svg>